<svg xmlns="http://www.w3.org/2000/svg" viewBox="0 0 2000 2000"><defs><style>.a58c42d6-bcea-4742-9196-29c0f8f9faea{fill:#fff;}.a8bb83f9-72e8-4fb2-9d5e-dd3b152605f7{fill:#f0593a;}.eda54037-4e00-4ad0-92d5-30428fab32af{fill:#d1d3d4;}.e4d6d2e7-6700-4f9a-a073-75322036645d{fill:#ffd7b3;}.a1f06893-4d4f-40da-b613-e70aa57f6978{fill:#f9b21a;}.e1ec40e1-09f1-4050-876a-7c9e4887c3b1{fill:#804251;}.ae6ac3f3-4f26-488f-affa-c35f886d592e{fill:#631542;}</style></defs><title>addNotesIcon</title><g id="a69b9a4c-8947-4212-b96e-fedaebfd94f7" data-name="background"><rect class="a58c42d6-bcea-4742-9196-29c0f8f9faea" width="2000" height="2000"/></g><g id="b50ed363-39ed-41d9-ad8f-f3dfc7046402" data-name="Layer 3"><path class="a58c42d6-bcea-4742-9196-29c0f8f9faea" d="M1235.89,617.94h138.57a13.93,13.93,0,0,1,13.93,13.93V788.6a0,0,0,0,1,0,0H1222a0,0,0,0,1,0,0V631.87A13.93,13.93,0,0,1,1235.89,617.94Z" transform="translate(2610.36 1406.54) rotate(180)"/><path class="a8bb83f9-72e8-4fb2-9d5e-dd3b152605f7" d="M1234.2,582.38h138.57a13.93,13.93,0,0,1,13.93,13.93v33a0,0,0,0,1,0,0H1220.27a0,0,0,0,1,0,0v-33A13.93,13.93,0,0,1,1234.2,582.38Z"/><polygon class="eda54037-4e00-4ad0-92d5-30428fab32af" points="1460.6 567.37 1448.73 586.96 1475.69 612.67 1492.41 587.5 1460.6 567.37"/><polygon class="e4d6d2e7-6700-4f9a-a073-75322036645d" points="1379.21 690.06 1370.18 729.33 1379.21 735 1410.29 711.24 1379.21 690.06"/><polygon class="a1f06893-4d4f-40da-b613-e70aa57f6978" points="1448.73 586.96 1480.18 608.79 1410.29 711.24 1377.79 690.06 1448.73 586.96"/><polygon class="e1ec40e1-09f1-4050-876a-7c9e4887c3b1" points="1389.73 696.42 1401.76 705.42 1469.75 601.89 1459.16 594.66 1389.73 696.42"/><path class="e1ec40e1-09f1-4050-876a-7c9e4887c3b1" d="M1370.18,722.79s10.62,1.89,15.21,10.38C1385.39,733.17,1358.41,759.67,1370.18,722.79Z"/><polygon class="a8bb83f9-72e8-4fb2-9d5e-dd3b152605f7" points="1458.62 570.37 1490.77 591.13 1499.7 571.35 1472.51 555.26 1458.62 570.37"/><path class="e1ec40e1-09f1-4050-876a-7c9e4887c3b1" d="M1245.18,602.31h0a8.53,8.53,0,0,1-8.52-8.52V577.08a8.52,8.52,0,0,1,8.52-8.52h0a8.52,8.52,0,0,1,8.52,8.52v16.71A8.53,8.53,0,0,1,1245.18,602.31Z"/><path class="e1ec40e1-09f1-4050-876a-7c9e4887c3b1" d="M1285.18,602.31h0a8.53,8.53,0,0,1-8.52-8.52V577.08a8.52,8.52,0,0,1,8.52-8.52h0a8.52,8.52,0,0,1,8.52,8.52v16.71A8.53,8.53,0,0,1,1285.18,602.31Z"/><path class="e1ec40e1-09f1-4050-876a-7c9e4887c3b1" d="M1325.18,602.31h0a8.53,8.53,0,0,1-8.52-8.52V577.08a8.52,8.52,0,0,1,8.52-8.52h0a8.52,8.52,0,0,1,8.52,8.52v16.71A8.53,8.53,0,0,1,1325.18,602.31Z"/><path class="e1ec40e1-09f1-4050-876a-7c9e4887c3b1" d="M1365.18,602.31h0a8.53,8.53,0,0,1-8.52-8.52V577.08a8.52,8.52,0,0,1,8.52-8.52h0a8.52,8.52,0,0,1,8.52,8.52v16.71A8.53,8.53,0,0,1,1365.18,602.31Z"/><path class="ae6ac3f3-4f26-488f-affa-c35f886d592e" d="M1386.7,626.81H1220.84a2.5,2.5,0,0,0,0,5H1386.7a2.5,2.5,0,0,0,0-5Z"/><path class="ae6ac3f3-4f26-488f-affa-c35f886d592e" d="M1390,678.21a4,4,0,0,1-4-4V594.59a8.22,8.22,0,0,0-8.21-8.21h-4.07a4,4,0,0,1,0-8h4.07A16.23,16.23,0,0,1,1394,594.59v79.62A4,4,0,0,1,1390,678.21Z"/><path class="ae6ac3f3-4f26-488f-affa-c35f886d592e" d="M1377.77,792.45H1232.48a16.23,16.23,0,0,1-16.21-16.21V594.59a16.23,16.23,0,0,1,16.21-16.21h4.18a4,4,0,0,1,0,8h-4.18a8.22,8.22,0,0,0-8.21,8.21V776.24a8.22,8.22,0,0,0,8.21,8.21h145.29a8.22,8.22,0,0,0,8.21-8.21V729.61a4,4,0,0,1,8,0v46.63A16.23,16.23,0,0,1,1377.77,792.45Z"/><path class="ae6ac3f3-4f26-488f-affa-c35f886d592e" d="M1276.66,586.38h-23a4,4,0,0,1,0-8h23a4,4,0,0,1,0,8Z"/><path class="ae6ac3f3-4f26-488f-affa-c35f886d592e" d="M1316.66,586.38h-23a4,4,0,0,1,0-8h23a4,4,0,0,1,0,8Z"/><path class="ae6ac3f3-4f26-488f-affa-c35f886d592e" d="M1356.66,586.38h-23a4,4,0,0,1,0-8h23a4,4,0,0,1,0,8Z"/><path class="ae6ac3f3-4f26-488f-affa-c35f886d592e" d="M1246.7,661.16h114.43a2.5,2.5,0,0,0,0-5H1246.7a2.5,2.5,0,0,0,0,5Z"/><path class="ae6ac3f3-4f26-488f-affa-c35f886d592e" d="M1361.13,678.16H1246.7a2.5,2.5,0,0,0,0,5h114.43a2.5,2.5,0,0,0,0-5Z"/><path class="ae6ac3f3-4f26-488f-affa-c35f886d592e" d="M1361.13,699.16H1246.7a2.5,2.5,0,0,0,0,5h114.43a2.5,2.5,0,0,0,0-5Z"/><path class="ae6ac3f3-4f26-488f-affa-c35f886d592e" d="M1361.13,721.16H1246.7a2.5,2.5,0,0,0,0,5h114.43a2.5,2.5,0,0,0,0-5Z"/><path class="ae6ac3f3-4f26-488f-affa-c35f886d592e" d="M1361.13,744.16H1246.7a2.5,2.5,0,0,0,0,5h114.43a2.5,2.5,0,0,0,0-5Z"/><path class="ae6ac3f3-4f26-488f-affa-c35f886d592e" d="M1496.09,561.45h0l-11-7.32a17.08,17.08,0,0,0-23.67,4.75l-6.14,9.28-79.42,119.7a4,4,0,0,0-.52,1.15l-9,32.64L1361.41,737a4,4,0,0,0-.19,1.5,9.58,9.58,0,0,0,9.53,8.92,9.72,9.72,0,0,0,3.09-.51,4.27,4.27,0,0,0,1.17-.63l39.51-30.66a4,4,0,0,0,.88-1l79.3-120.27,6.13-9.27A17.09,17.09,0,0,0,1496.09,561.45Zm-35.17,12.69,26,17.45-8.53,12.94-25.8-17.9Zm-68.09,122.17L1460,597.84l6.44,4.47-66.19,99.07Zm57-105.51,6,4.19-67.21,98.5-4.8-3.27ZM1382,695l24.53,16.71-21.17,16.43a18.33,18.33,0,0,0-10.48-7.29Zm-11.2,44.44a1.62,1.62,0,0,1-1.47-.93l4.14-12.85a13.58,13.58,0,0,1,7.93,5.56Zm39.34-31.31-5.74-3.92,66.17-99,5.11,3.54Zm84-127.42-4.45,6.73-26-17.45,4.41-6.66a9.07,9.07,0,0,1,12.58-2.52l11,7.32A9.08,9.08,0,0,1,1494.17,580.69Z"/><path class="ae6ac3f3-4f26-488f-affa-c35f886d592e" d="M1245.18,606.31a12.54,12.54,0,0,1-12.52-12.52V577.08a12.52,12.52,0,1,1,25,0v16.71A12.54,12.54,0,0,1,1245.18,606.31Zm0-33.75a4.52,4.52,0,0,0-4.52,4.52v16.71a4.52,4.52,0,0,0,9,0V577.08A4.52,4.52,0,0,0,1245.18,572.56Z"/><path class="ae6ac3f3-4f26-488f-affa-c35f886d592e" d="M1285.18,606.31a12.54,12.54,0,0,1-12.52-12.52V577.08a12.52,12.52,0,1,1,25,0v16.71A12.54,12.54,0,0,1,1285.18,606.31Zm0-33.75a4.52,4.52,0,0,0-4.52,4.52v16.71a4.52,4.52,0,0,0,9,0V577.08A4.52,4.52,0,0,0,1285.18,572.56Z"/><path class="ae6ac3f3-4f26-488f-affa-c35f886d592e" d="M1325.18,606.31a12.54,12.54,0,0,1-12.52-12.52V577.08a12.52,12.52,0,1,1,25,0v16.71A12.54,12.54,0,0,1,1325.18,606.31Zm0-33.75a4.52,4.52,0,0,0-4.52,4.52v16.71a4.52,4.52,0,0,0,9,0V577.08A4.52,4.52,0,0,0,1325.18,572.56Z"/><path class="ae6ac3f3-4f26-488f-affa-c35f886d592e" d="M1365.18,606.31a12.54,12.54,0,0,1-12.52-12.52V577.08a12.52,12.52,0,1,1,25,0v16.71A12.54,12.54,0,0,1,1365.18,606.31Zm0-33.75a4.52,4.52,0,0,0-4.52,4.52v16.71a4.52,4.52,0,0,0,9,0V577.08A4.52,4.52,0,0,0,1365.18,572.56Z"/><path class="a58c42d6-bcea-4742-9196-29c0f8f9faea" d="M1376.3,619.94H1234.54a2,2,0,0,1,0-4H1376.3a2,2,0,0,1,0,4Z"/></g></svg>