<svg id="fa8fd871-7dc4-4612-966b-9274ab9e5585" data-name="Layer 2" xmlns="http://www.w3.org/2000/svg" viewBox="0 0 508.95 372.35"><defs><style>.e619f6ba-82e6-4b88-97b9-359900dcd37d{fill:#69ab56;}</style></defs><title>checkYesIcon</title><path class="e619f6ba-82e6-4b88-97b9-359900dcd37d" d="M1740.85,1430.51a40.38,40.38,0,0,1-16.59,21.58q-17.22,9.5-34.1,19.56A1172.87,1172.87,0,0,0,1577.68,1548q-22.86,17.82-44.84,36.74-42.57,36.66-81.5,77.29t-73.71,84.75a36.06,36.06,0,0,1-15.93,9.28,27.45,27.45,0,0,1-14.4.65,26.9,26.9,0,0,1-13.42-4.29,36.36,36.36,0,0,1-13-13l-18.19-25.58-64.67-90.94c-5.56-7.82-5.68-18.83-3.64-27.82,2.1-9.2,8.88-16.61,16.59-21.57a26.8,26.8,0,0,1,13.43-4.28,37.08,37.08,0,0,1,36,17.23q9.09,12.78,18.18,25.57,17.79,25,35.55,50,19.18-22.54,39.5-44.11,31.27-33.2,65.09-63.89t69.83-58.65c26.38-20.46,53.29-40.14,81.18-58.51q38.09-25.1,78.06-47.14a38.48,38.48,0,0,1,27.82-3.65c9.21,2.1,16.61,8.89,21.58,16.6a26.83,26.83,0,0,1,4.28,13.42A27.32,27.32,0,0,1,1740.85,1430.51Z" transform="translate(-1233.22 -1385)"/></svg>