<svg id="a5b155be-4bc1-4879-9cd7-b68f415fc7ab" data-name="Layer 2" xmlns="http://www.w3.org/2000/svg" viewBox="0 0 359.01 413.39"><defs><style>.a9d38bd8-f8a5-4875-9684-d67d2d32b710{fill:#c4686f;}</style></defs><title>checkNoIcon</title><path class="a9d38bd8-f8a5-4875-9684-d67d2d32b710" d="M1657,1767.65a34.65,34.65,0,0,1-47.63,0q-4.09-3.72-8.18-7.46-32.64-29.91-63.68-61.53-25.65-26.15-50.13-53.41-28.09,31.23-57.7,61.06-31.34,31.51-64.3,61.34a33.53,33.53,0,0,1-14.86,8.65l-9,1.21c-9,.4-17.39-4-23.81-9.86a34.62,34.62,0,0,1,0-47.63q24.18-21.87,47.48-44.66,40.27-39.37,77.84-81.42-11.61-14-22.94-28.23c-20-25.22-39.44-50.89-58.09-77.12q-25.76-36.21-49.56-73.75a33.52,33.52,0,0,1-4.59-17c.39-3,.8-6,1.2-8.95,2-8.59,8.28-15.49,15.47-20.13a25.15,25.15,0,0,1,12.52-4,25.57,25.57,0,0,1,13.43.6c8.47,2.33,15.48,8.15,20.12,15.47q9.22,14.55,18.75,28.9,32.23,48.57,67.79,94.83,14.83,19.1,30.2,37.75,15.23-18.49,29.92-37.39,9.26-12,18.28-24.2,36.06-48.69,68.53-99.89a33.94,33.94,0,0,1,12.08-12.08l8-3.39a34,34,0,0,1,17.9,0l8,3.39a32.44,32.44,0,0,1,16.08,33.56,25.15,25.15,0,0,1-4,12.52q-3,4.67-6,9.32-24,37.26-49.87,73.18-28.23,39.17-58.54,76.78-8,10-16.22,19.83,20.34,22.74,41.46,44.73,40.48,42.1,83.86,81.34a33.69,33.69,0,0,1,8.66,14.86l1.2,8.95C1667.25,1752.8,1662.88,1761.23,1657,1767.65Z" transform="translate(-1307.87 -1364.14)"/></svg>