<svg id="bd036906-f292-4e3b-ae15-04a4aa2bc97f" data-name="Layer 2" xmlns="http://www.w3.org/2000/svg" viewBox="0 0 290.9 446.82"><defs><style>.f0a9834c-9e34-4508-b573-e87c7d796ee5{fill:#e1d888;}</style></defs><title>checkEqualIcon</title><path class="f0a9834c-9e34-4508-b573-e87c7d796ee5" d="M1343.31,1388.49A629.74,629.74,0,0,1,1367,1495.35l-1.09-8.11c9.54,71.16,9,143.15,6.1,214.74-.83,20.59-1.86,41.17-2.9,61.75-.8,16,14.61,31.21,30.5,30.5,17.22-.77,29.64-13.41,30.5-30.5,5.2-102.93,9.43-206.36-7.93-308.45a605.27,605.27,0,0,0-20.06-83c-4.86-15.17-21.4-26.52-37.52-21.3-15.2,4.92-26.51,21.24-21.31,37.52Z" transform="translate(-1342.03 -1347.43)"/><path class="f0a9834c-9e34-4508-b573-e87c7d796ee5" d="M1543.76,1386.14q10.65,50.27,17.49,101.21l-1.09-8.11a1353.27,1353.27,0,0,1,11.22,221.4q-1,31.48-3.48,62.9c-1.24,15.94,14.92,31.19,30.5,30.5,17.6-.79,29.17-13.42,30.5-30.5,8.09-103.39,3.82-207.12-11.25-309.68q-6.2-42.19-15.07-83.93c-3.32-15.63-22.5-26.17-37.52-21.3-16.5,5.33-24.85,20.77-21.3,37.51Z" transform="translate(-1342.03 -1347.43)"/></svg>