<svg id="a5dd6dc7-d98e-4af9-ae44-8f7608a5d475" data-name="Layer 5" xmlns="http://www.w3.org/2000/svg" viewBox="0 0 821.38 943.88"><defs><style>.f966481b-cb21-4710-993b-f5d959aa80a9{fill:#F0F0F4;}.b2b46c3b-6286-410b-b377-505f81276aa9{fill:#292B4D;}</style></defs><title>deleteIcon</title><path class="f966481b-cb21-4710-993b-f5d959aa80a9" d="M991.69,334.75V284.66H934.31C931.36,258,910.8,237.2,886.05,237.2H785.16V215.89c0-62.4-36.21-113.16-80.72-113.16H438.56c-44.5,0-80.71,50.76-80.71,113.16V237.2H261.71c-24.76,0-45.31,20.81-48.27,47.46H170.31v50.09ZM405.33,215.89c0-25.69,14.91-46.59,33.23-46.59H704.44c18.33,0,33.24,20.9,33.24,46.59V237.2H405.33Z" transform="translate(-170.31 -102.73)"/><polyline class="f966481b-cb21-4710-993b-f5d959aa80a9" points="139.61 943.88 674.24 943.88 777.24 316.38 821.38 316.38 821.38 292.65 821.38 263.65 0 263.65 0 292.65 2.28 292.65 2.28 316.38 41.52 316.38 139.61 943.88"/><path class="b2b46c3b-6286-410b-b377-505f81276aa9" d="M466.88,913.57c0,26.77-19.29,48.67-42.85,48.67h-3.58c-23.56,0-42.85-21.9-42.85-48.67v-430c0-26.77,19.29-48.67,42.85-48.67H424c23.56,0,42.85,21.9,42.85,48.67Z" transform="translate(-170.31 -102.73)"/><path class="b2b46c3b-6286-410b-b377-505f81276aa9" d="M624,913.57c0,26.77-19.28,48.67-42.85,48.67h-3.57c-23.57,0-42.85-21.9-42.85-48.67v-430c0-26.77,19.28-48.67,42.85-48.67h3.57c23.57,0,42.85,21.9,42.85,48.67Z" transform="translate(-170.31 -102.73)"/><path class="b2b46c3b-6286-410b-b377-505f81276aa9" d="M784.7,913.57c0,26.77-19.28,48.67-42.85,48.67h-3.57c-23.57,0-42.86-21.9-42.86-48.67v-430c0-26.77,19.29-48.67,42.86-48.67h3.57c23.57,0,42.85,21.9,42.85,48.67Z" transform="translate(-170.31 -102.73)"/></svg>