<svg id="afd20015-14a2-4941-99fd-7242b8a1af20" data-name="Layer 3" xmlns="http://www.w3.org/2000/svg" viewBox="0 0 207.98 207.97"><title>editIcon</title><style>#afd20015-14a2-4941-99fd-7242b8a1af20{fill:#F0F0F4;}</style><path d="M201.5,263.49l47.29,16-16-47.28L105,104.38a22.14,22.14,0,0,0-31.3,31.31l127.8,127.8Zm54.6,30.58-59.15-20a5.76,5.76,0,0,1-2.67-1.52h0L65.55,143.83a33.65,33.65,0,0,1,47.6-47.59L241.79,224.88a5.76,5.76,0,0,1,1.47,2.32v0l20,59.14a5.77,5.77,0,0,1-7.14,7.73Z" transform="translate(-55.73 -86.42)"/><path d="M83.33,153.47a5.76,5.76,0,1,0,8.15,8.14l39.44-39.45a5.76,5.76,0,0,0-8.14-8.14Z" transform="translate(-55.73 -86.42)"/><path d="M194.28,264.42a5.76,5.76,0,0,0,8.15,8.14l39.44-39.45a5.76,5.76,0,0,0-8.14-8.14Z" transform="translate(-55.73 -86.42)"/></svg>