<svg id="aa94d281-a070-4b5e-a6c3-c9257ae6b81a" data-name="Layer 2" xmlns="http://www.w3.org/2000/svg" viewBox="0 0 148.19 175.86"><defs><style>.e6b0597b-48cd-49a4-9f56-eacb4ab689cf{fill:#dd788c;}.a7c4c19e-cfec-4bac-8ae7-eea53c30a307{fill:#b7cf49;}.a5d07250-8b35-435a-a2d8-db6856518ac5{fill:#e8ecb3;}.b462f838-5c51-43b9-977b-68285f245dcd{fill:#404b75;}.e5b31837-fcb9-4b82-b045-8bb8d0cb1084{fill:#fff;}.a1767e7c-e922-4853-a763-e0951da1a02d{fill:#deebf5;}.f3792a1b-e4cb-4d10-b89a-eaaf92810204{fill:#7ccad8;}</style></defs><title>mainWeightIcon</title><path class="e6b0597b-48cd-49a4-9f56-eacb4ab689cf" d="M773.38,381a1.63,1.63,0,0,1-1.62-1.62v-4.61a1.62,1.62,0,1,1,3.23,0v4.61A1.62,1.62,0,0,1,773.38,381Z" transform="translate(-634.69 -349.23)"/><path class="e6b0597b-48cd-49a4-9f56-eacb4ab689cf" d="M773.38,392.16a1.62,1.62,0,0,1-1.62-1.61v-4.62a1.62,1.62,0,0,1,3.23,0v4.62A1.61,1.61,0,0,1,773.38,392.16Z" transform="translate(-634.69 -349.23)"/><path class="e6b0597b-48cd-49a4-9f56-eacb4ab689cf" d="M781.26,384.28h-4.61a1.62,1.62,0,1,1,0-3.23h4.61a1.62,1.62,0,1,1,0,3.23Z" transform="translate(-634.69 -349.23)"/><path class="e6b0597b-48cd-49a4-9f56-eacb4ab689cf" d="M770.11,384.28h-4.62a1.62,1.62,0,0,1,0-3.23h4.62a1.62,1.62,0,0,1,0,3.23Z" transform="translate(-634.69 -349.23)"/><path class="a7c4c19e-cfec-4bac-8ae7-eea53c30a307" d="M636.43,419l7.21,91a14.64,14.64,0,0,0,14.59,13.48h93.21A14.63,14.63,0,0,0,766,510l7.21-91a43.13,43.13,0,0,0-43-46.54H679.42A43.13,43.13,0,0,0,636.43,419Z" transform="translate(-634.69 -349.23)"/><path class="a5d07250-8b35-435a-a2d8-db6856518ac5" d="M679.42,376.61h50.83a43.15,43.15,0,0,1,43.08,41,43.14,43.14,0,0,0-43.08-45.14H679.42a43.12,43.12,0,0,0-43.07,45.14A43.13,43.13,0,0,1,679.42,376.61Z" transform="translate(-634.69 -349.23)"/><path class="b462f838-5c51-43b9-977b-68285f245dcd" d="M751.44,525.09H658.23a16.33,16.33,0,0,1-16.2-15l-7.2-91a44.73,44.73,0,0,1,44.59-48.27h50.83a44.74,44.74,0,0,1,44.6,48.27l-7.21,91A16.33,16.33,0,0,1,751.44,525.09Zm-72-151A41.51,41.51,0,0,0,638,418.9h0l7.21,91a13.09,13.09,0,0,0,13,12h93.21a13.08,13.08,0,0,0,13-12l7.21-91a41.51,41.51,0,0,0-41.38-44.79Z" transform="translate(-634.69 -349.23)"/><path class="e5b31837-fcb9-4b82-b045-8bb8d0cb1084" d="M682.07,385.34l3.32,17.93h38.9l3.31-17.93A3.7,3.7,0,0,0,724,381H685.71A3.71,3.71,0,0,0,682.07,385.34Z" transform="translate(-634.69 -349.23)"/><path class="e6b0597b-48cd-49a4-9f56-eacb4ab689cf" d="M704.84,404.88a1.62,1.62,0,0,1-1.62-1.61V386.75a1.62,1.62,0,0,1,3.23,0v16.52A1.61,1.61,0,0,1,704.84,404.88Z" transform="translate(-634.69 -349.23)"/><path class="a1767e7c-e922-4853-a763-e0951da1a02d" d="M757.38,390.55a36.68,36.68,0,0,0-14.82-9.79,7.08,7.08,0,0,0-9.3,5.54l0,.08L729.06,409H680.62l-4.19-22.62v-.08a7.08,7.08,0,0,0-9.3-5.54,37,37,0,0,0-24.52,37.78l7.21,91a8.5,8.5,0,0,0,8.42,7.78h93.21a8.48,8.48,0,0,0,8.42-7.78l7.21-91A36.59,36.59,0,0,0,757.38,390.55Z" transform="translate(-634.69 -349.23)"/><path class="b462f838-5c51-43b9-977b-68285f245dcd" d="M751.44,518.9H658.23a10.12,10.12,0,0,1-10-9.26l-7.21-91a38.66,38.66,0,0,1,25.59-39.42,8.57,8.57,0,0,1,7.21.69A8.81,8.81,0,0,1,678,386v0l4,21.33h45.76l3.94-21.3V386a8.78,8.78,0,0,1,4.22-6.09,8.59,8.59,0,0,1,7.2-.7,38,38,0,0,1,15.47,10.23h0a38.11,38.11,0,0,1,10.12,29.2l-7.21,91A10.11,10.11,0,0,1,751.44,518.9ZM669.45,382a5.41,5.41,0,0,0-1.8.31,35.44,35.44,0,0,0-23.44,36.13l7.21,91a6.87,6.87,0,0,0,6.81,6.3h93.21a6.87,6.87,0,0,0,6.81-6.3l7.21-91A35.44,35.44,0,0,0,742,382.28a5.27,5.27,0,0,0-4.5.43,5.63,5.63,0,0,0-2.68,3.87v.07l-4.19,22.65a1.61,1.61,0,0,1-1.58,1.32H680.62A1.62,1.62,0,0,1,679,409.3l-4.2-22.74a5.62,5.62,0,0,0-2.67-3.85A5.39,5.39,0,0,0,669.45,382Z" transform="translate(-634.69 -349.23)"/><path class="b462f838-5c51-43b9-977b-68285f245dcd" d="M724.29,404.88h-38.9a1.61,1.61,0,0,1-1.59-1.32l-3.31-17.93h0a5.32,5.32,0,0,1,5.22-6.28H724a5.32,5.32,0,0,1,5.23,6.28l-3.32,17.93A1.61,1.61,0,0,1,724.29,404.88Zm-37.56-3.22h36.21L726,385.05a2.09,2.09,0,0,0-2.06-2.47H685.71a2.09,2.09,0,0,0-2.05,2.47Z" transform="translate(-634.69 -349.23)"/><path class="b462f838-5c51-43b9-977b-68285f245dcd" d="M704.84,507.65a1.62,1.62,0,0,1-1.62-1.61V451.29a1.62,1.62,0,1,1,3.23,0V506A1.61,1.61,0,0,1,704.84,507.65Z" transform="translate(-634.69 -349.23)"/><path class="b462f838-5c51-43b9-977b-68285f245dcd" d="M704.84,446.38a1.62,1.62,0,0,1-1.62-1.61v-8a1.62,1.62,0,0,1,3.23,0v8A1.61,1.61,0,0,1,704.84,446.38Z" transform="translate(-634.69 -349.23)"/><path class="b462f838-5c51-43b9-977b-68285f245dcd" d="M722.56,362.67a1.62,1.62,0,0,1-1.62-1.61V350.84a1.62,1.62,0,0,1,3.23,0v10.22A1.61,1.61,0,0,1,722.56,362.67Z" transform="translate(-634.69 -349.23)"/><path class="b462f838-5c51-43b9-977b-68285f245dcd" d="M727.66,357.56H717.45a1.61,1.61,0,0,1,0-3.22h10.21a1.61,1.61,0,1,1,0,3.22Z" transform="translate(-634.69 -349.23)"/><path class="f3792a1b-e4cb-4d10-b89a-eaaf92810204" d="M662.1,370.81a1.6,1.6,0,0,1-1.14-.47c-1.61-1.61-3-2.4-4.31-2.4s-2.7.79-4.31,2.4a1.62,1.62,0,0,1-2.29-2.28c3.19-3.18,3.19-5.44,0-8.62a1.64,1.64,0,0,1-.47-1.14,1.6,1.6,0,0,1,.47-1.14,1.62,1.62,0,0,1,2.29,0c3.18,3.18,5.43,3.18,8.62,0a1.61,1.61,0,0,1,2.75,1.14,1.64,1.64,0,0,1-.47,1.14c-3.18,3.18-3.18,5.44,0,8.62a1.62,1.62,0,0,1,.47,1.14,1.6,1.6,0,0,1-1.61,1.61Zm-6.53-8.14a6.47,6.47,0,0,1,0,2.15,6.47,6.47,0,0,1,2.15,0,6.47,6.47,0,0,1,0-2.15A6.47,6.47,0,0,1,655.57,362.67Z" transform="translate(-634.69 -349.23)"/></svg>