<svg id="af3707da-e00d-4030-b8d8-6bfcbb862a6a" data-name="Layer 2" xmlns="http://www.w3.org/2000/svg" viewBox="0 0 185.48 217.59"><defs><style>.a1ad4dd3-5322-4df1-9b17-dffb7147cc84{fill:#b7cf49;}.b904530a-90d9-463e-a2f1-0d9394bab92c{fill:#7ccad8;}.aec99c4e-e010-43b8-862a-f9df56380869{fill:#dd788c;}.e3b03d10-ad5b-4e9c-88a0-040673bdd4bd{fill:#ece676;}.f423c559-7b31-42a1-a2cb-e39869de5a3d{fill:#404b75;}.b18e5512-c133-4bb1-a3f3-364b990899cc{fill:#fff;}.f3f6185b-a1d7-4c44-a690-8505252ce92f{fill:#a2d7db;}.e96ff1f6-9174-4cea-9cc6-e49dcd9904d1{fill:none;stroke:#404b75;stroke-linecap:round;stroke-linejoin:round;stroke-width:9px;}.b09ac746-4474-4fc5-a83f-412ddbf43a6d{fill:#ead9d8;}.a6b47aad-f9af-4def-995a-71ce2c7a9110{fill:#c5afac;}</style></defs><title>optionsIcon</title><path class="a1ad4dd3-5322-4df1-9b17-dffb7147cc84" d="M769,388.31a7.21,7.21,0,1,1,7.21-7.21A7.22,7.22,0,0,1,769,388.31Zm0-11.19a4,4,0,1,0,4,4A4,4,0,0,0,769,377.12Z" transform="translate(-615.62 -328.37)"/><path class="b904530a-90d9-463e-a2f1-0d9394bab92c" d="M721.36,341.81a1.61,1.61,0,0,1-1.61-1.61V330a1.61,1.61,0,1,1,3.22,0V340.2A1.61,1.61,0,0,1,721.36,341.81Z" transform="translate(-615.62 -328.37)"/><path class="b904530a-90d9-463e-a2f1-0d9394bab92c" d="M726.47,336.7H716.25a1.61,1.61,0,1,1,0-3.22h10.22a1.61,1.61,0,1,1,0,3.22Z" transform="translate(-615.62 -328.37)"/><path class="aec99c4e-e010-43b8-862a-f9df56380869" d="M784.79,420.45a1.64,1.64,0,0,1-1.14-.47,1.61,1.61,0,0,1,0-2.28l3.27-3.27a1.61,1.61,0,0,1,2.28,2.28L785.93,420A1.62,1.62,0,0,1,784.79,420.45Z" transform="translate(-615.62 -328.37)"/><path class="aec99c4e-e010-43b8-862a-f9df56380869" d="M776.9,428.34a1.62,1.62,0,0,1-1.14-2.76l3.27-3.26a1.61,1.61,0,0,1,2.28,2.28L778,427.87A1.62,1.62,0,0,1,776.9,428.34Z" transform="translate(-615.62 -328.37)"/><path class="aec99c4e-e010-43b8-862a-f9df56380869" d="M788.06,428.34a1.6,1.6,0,0,1-1.14-.47l-3.27-3.27a1.61,1.61,0,0,1,2.28-2.28l3.27,3.26a1.62,1.62,0,0,1-1.14,2.76Z" transform="translate(-615.62 -328.37)"/><path class="aec99c4e-e010-43b8-862a-f9df56380869" d="M780.17,420.45A1.6,1.6,0,0,1,779,420l-3.27-3.27a1.61,1.61,0,0,1,2.28-2.28l3.27,3.27a1.61,1.61,0,0,1,0,2.28A1.64,1.64,0,0,1,780.17,420.45Z" transform="translate(-615.62 -328.37)"/><rect class="e3b03d10-ad5b-4e9c-88a0-040673bdd4bd" x="1.61" y="29.95" width="135.48" height="186.02"/><path class="f423c559-7b31-42a1-a2cb-e39869de5a3d" d="M733.9,546H617.23a1.61,1.61,0,0,1-1.61-1.61v-186a1.62,1.62,0,0,1,1.61-1.62H752.72a1.62,1.62,0,0,1,1.61,1.62v69a1.62,1.62,0,0,1-3.23,0V359.93H618.84v182.8H733.9a1.61,1.61,0,0,1,0,3.22Z" transform="translate(-615.62 -328.37)"/><rect class="b18e5512-c133-4bb1-a3f3-364b990899cc" x="11.83" y="40.85" width="115.05" height="162.02"/><path class="f423c559-7b31-42a1-a2cb-e39869de5a3d" d="M723.86,532.85H627.45a1.61,1.61,0,0,1-1.61-1.61v-162a1.61,1.61,0,0,1,1.61-1.61h115a1.61,1.61,0,0,1,1.61,1.61v92.71a1.62,1.62,0,0,1-3.23,0v-91.1H629.06V529.62h94.8a1.62,1.62,0,0,1,0,3.23Z" transform="translate(-615.62 -328.37)"/><path class="f423c559-7b31-42a1-a2cb-e39869de5a3d" d="M762.47,455.52h-6.09a12,12,0,1,1,0-24h6.09a12,12,0,1,1,0,24Zm-6.09-20.78a8.78,8.78,0,1,0,0,17.56h6.09a8.78,8.78,0,0,0,0-17.56Z" transform="translate(-615.62 -328.37)"/><circle class="f3f6185b-a1d7-4c44-a690-8505252ce92f" cx="759.42" cy="504.27" r="40.07" transform="translate(-711.16 -140.4) rotate(-13.28)"/><path class="f423c559-7b31-42a1-a2cb-e39869de5a3d" d="M759.42,546a41.68,41.68,0,1,1,41.68-41.68A41.72,41.72,0,0,1,759.42,546Zm0-80.13a38.46,38.46,0,1,0,38.46,38.45A38.5,38.5,0,0,0,759.42,465.82Z" transform="translate(-615.62 -328.37)"/><circle class="b18e5512-c133-4bb1-a3f3-364b990899cc" cx="759.42" cy="504.27" r="32.26" transform="translate(-711.16 -140.4) rotate(-13.28)"/><path class="f423c559-7b31-42a1-a2cb-e39869de5a3d" d="M759.42,538.15a33.88,33.88,0,1,1,33.88-33.88A33.91,33.91,0,0,1,759.42,538.15Zm0-64.53a30.65,30.65,0,1,0,30.65,30.65A30.69,30.69,0,0,0,759.42,473.62Z" transform="translate(-615.62 -328.37)"/><path class="aec99c4e-e010-43b8-862a-f9df56380869" d="M759.42,507.56a1.61,1.61,0,0,1-1.61-1.61V478.47a1.62,1.62,0,1,1,3.23,0V506A1.62,1.62,0,0,1,759.42,507.56Z" transform="translate(-615.62 -328.37)"/><path class="e96ff1f6-9174-4cea-9cc6-e49dcd9904d1" d="M759.42,464.21" transform="translate(-615.62 -328.37)"/><rect class="f3f6185b-a1d7-4c44-a690-8505252ce92f" x="137.98" y="122.68" width="11.65" height="8.6"/><path class="f423c559-7b31-42a1-a2cb-e39869de5a3d" d="M765.25,461.26H753.6a1.62,1.62,0,0,1-1.62-1.61V451a1.62,1.62,0,0,1,1.62-1.61h11.65a1.61,1.61,0,0,1,1.61,1.61v8.61A1.61,1.61,0,0,1,765.25,461.26Zm-10-3.23h8.42v-5.37h-8.42Z" transform="translate(-615.62 -328.37)"/><path class="f423c559-7b31-42a1-a2cb-e39869de5a3d" d="M759.42,465.82a1.61,1.61,0,0,1-1.61-1.61v-4.56a1.62,1.62,0,1,1,3.23,0v4.56A1.62,1.62,0,0,1,759.42,465.82Z" transform="translate(-615.62 -328.37)"/><rect class="e3b03d10-ad5b-4e9c-88a0-040673bdd4bd" x="786.66" y="460.05" width="8.6" height="11.65" transform="translate(-713.37 367.38) rotate(-45)"/><path class="f423c559-7b31-42a1-a2cb-e39869de5a3d" d="M792,474.64a1.6,1.6,0,0,1-1.14-.47l-8.24-8.24a1.61,1.61,0,0,1-.47-1.14,1.65,1.65,0,0,1,.47-1.14l6.09-6.08a1.61,1.61,0,0,1,2.28,0l8.23,8.24a1.59,1.59,0,0,1,0,2.28l-6.08,6.08A1.58,1.58,0,0,1,792,474.64Zm-5.95-9.85,5.95,6,3.8-3.8-6-6Z" transform="translate(-615.62 -328.37)"/><path class="f423c559-7b31-42a1-a2cb-e39869de5a3d" d="M784.7,473.75a1.61,1.61,0,0,1-1.14-2.75l3.22-3.23a1.61,1.61,0,1,1,2.28,2.28l-3.22,3.23A1.64,1.64,0,0,1,784.7,473.75Z" transform="translate(-615.62 -328.37)"/><rect class="b09ac746-4474-4fc5-a83f-412ddbf43a6d" x="44.79" y="36.06" width="60.95" height="14.48"/><rect class="a6b47aad-f9af-4def-995a-71ce2c7a9110" x="44.79" y="44.62" width="60.95" height="5.91"/><path class="f423c559-7b31-42a1-a2cb-e39869de5a3d" d="M721.36,380.51h-61a1.61,1.61,0,0,1-1.62-1.61V364.42a1.61,1.61,0,0,1,1.62-1.61h61a1.61,1.61,0,0,1,1.61,1.61V378.9A1.61,1.61,0,0,1,721.36,380.51ZM662,377.29h57.73V366H662Z" transform="translate(-615.62 -328.37)"/><path class="b09ac746-4474-4fc5-a83f-412ddbf43a6d" d="M665.17,364.42H716.6l-21.41-9.71h0a6.87,6.87,0,1,0-8.61,0h0Zm25.71-17.33a2.29,2.29,0,1,1-2.28,2.29A2.29,2.29,0,0,1,690.88,347.09Z" transform="translate(-615.62 -328.37)"/><path class="f423c559-7b31-42a1-a2cb-e39869de5a3d" d="M716.6,366H665.17a1.62,1.62,0,0,1-.67-3.09l19.39-8.79a8.47,8.47,0,1,1,14,0L717.26,363a1.62,1.62,0,0,1-.66,3.09Zm-44-3.23h36.52l-14.59-6.62a1.6,1.6,0,0,1-.88-.94,1.62,1.62,0,0,1,.5-1.8,5.24,5.24,0,1,0-6.58,0,1.64,1.64,0,0,1,.51,1.8,1.61,1.61,0,0,1-.91.95Zm18.26-9.54a3.9,3.9,0,1,1,3.9-3.89A3.9,3.9,0,0,1,690.88,353.27Zm0-4.57a.68.68,0,1,0,.67.68A.67.67,0,0,0,690.88,348.7Z" transform="translate(-615.62 -328.37)"/><path class="f423c559-7b31-42a1-a2cb-e39869de5a3d" d="M654,419.34H638.79a1.61,1.61,0,0,1-1.61-1.61V402.56a1.62,1.62,0,0,1,1.61-1.62H654a1.63,1.63,0,0,1,1.62,1.62v15.17A1.62,1.62,0,0,1,654,419.34Zm-13.56-3.22h12V404.17h-12Z" transform="translate(-615.62 -328.37)"/><path class="aec99c4e-e010-43b8-862a-f9df56380869" d="M645.84,413.25h-.06a1.6,1.6,0,0,1-1.22-.64l-3.95-5.18a1.61,1.61,0,0,1,2.57-1.95l2.75,3.61L659.19,394a1.61,1.61,0,0,1,2.43,2.12L647.05,412.7A1.62,1.62,0,0,1,645.84,413.25Z" transform="translate(-615.62 -328.37)"/><path class="f423c559-7b31-42a1-a2cb-e39869de5a3d" d="M654,456.48H638.79a1.61,1.61,0,0,1-1.61-1.61V439.69a1.61,1.61,0,0,1,1.61-1.61H654a1.62,1.62,0,0,1,1.62,1.61v15.18A1.62,1.62,0,0,1,654,456.48Zm-13.56-3.23h12V441.31h-12Z" transform="translate(-615.62 -328.37)"/><path class="aec99c4e-e010-43b8-862a-f9df56380869" d="M645.84,450.39h-.06a1.6,1.6,0,0,1-1.22-.64l-3.95-5.19a1.61,1.61,0,0,1,2.57-1.95l2.75,3.62,13.26-15.13a1.62,1.62,0,0,1,2.43,2.13l-14.57,16.61A1.62,1.62,0,0,1,645.84,450.39Z" transform="translate(-615.62 -328.37)"/><path class="f423c559-7b31-42a1-a2cb-e39869de5a3d" d="M654,493.62H638.79a1.61,1.61,0,0,1-1.61-1.62V476.83a1.61,1.61,0,0,1,1.61-1.61H654a1.62,1.62,0,0,1,1.62,1.61V492A1.62,1.62,0,0,1,654,493.62Zm-13.56-3.23h12V478.44h-12Z" transform="translate(-615.62 -328.37)"/><path class="aec99c4e-e010-43b8-862a-f9df56380869" d="M645.84,487.52h-.06a1.59,1.59,0,0,1-1.22-.63l-3.95-5.19a1.61,1.61,0,0,1,2.57-1.95l2.75,3.61,13.26-15.12a1.62,1.62,0,0,1,2.43,2.13L647.05,487A1.62,1.62,0,0,1,645.84,487.52Z" transform="translate(-615.62 -328.37)"/><path class="f423c559-7b31-42a1-a2cb-e39869de5a3d" d="M708.8,419.34H670.9a1.61,1.61,0,0,1,0-3.22h37.9a1.61,1.61,0,1,1,0,3.22Z" transform="translate(-615.62 -328.37)"/><path class="f423c559-7b31-42a1-a2cb-e39869de5a3d" d="M708.8,456.48H670.9a1.62,1.62,0,0,1,0-3.23h37.9a1.62,1.62,0,1,1,0,3.23Z" transform="translate(-615.62 -328.37)"/><path class="f423c559-7b31-42a1-a2cb-e39869de5a3d" d="M708.8,493.62H670.9a1.62,1.62,0,0,1,0-3.23h37.9a1.62,1.62,0,1,1,0,3.23Z" transform="translate(-615.62 -328.37)"/></svg>