<svg xmlns="http://www.w3.org/2000/svg" viewBox="0 0 1291.63 1156.34"><defs><style>.a84977e9-b825-4bfb-b998-70d10435bbc6{isolation:isolate;}.a1eb5526-28fa-4e76-80e6-c15800fc2d68{fill:#c02d35;}.aadde57e-5348-44fb-ac33-2775996e2919,.bc4b891f-5634-4d5b-a6d6-12ea9a9c5431{fill:#fff;}.bc4b891f-5634-4d5b-a6d6-12ea9a9c5431{opacity:0.3;mix-blend-mode:soft-light;}.a4d98804-89e7-4c50-a968-b5361da933e2{fill:#dadada;}.a4d98804-89e7-4c50-a968-b5361da933e2,.b5b4e78c-303e-4fce-8744-3679f8cde63b{mix-blend-mode:multiply;}.bfdfec0f-0894-4e94-8a7f-29385b46c572{fill:#c02b35;}.b5b4e78c-303e-4fce-8744-3679f8cde63b{fill:#acacac;}</style></defs><title>scaleIcon</title><g class="a84977e9-b825-4bfb-b998-70d10435bbc6"><g id="b7e702e8-ec79-4b69-937a-31bed84138ae" data-name="Capa 1"><path class="a1eb5526-28fa-4e76-80e6-c15800fc2d68" d="M1450.5,1416.57c-37.16,89.7-144.26,156.25-217.77,156.25H730.5c-65.85,0-194.11-35-228.22-120.14-46.5-116.1-152-693.69-155-826.57C344,482.62,413.35,463.44,510,438.87c103.24-26.25,740.22-33.25,871.46,0,96.41,24.42,197.51,43.75,194.24,183.74C1572.74,750.24,1495.23,1308.58,1450.5,1416.57Z" transform="translate(-284.17 -416.48)"/><path class="a1eb5526-28fa-4e76-80e6-c15800fc2d68" d="M1387.5,1416.57c-37.16,89.7-144.26,156.25-217.76,156.25H667.51c-65.86,0-194.12-35-228.22-120.14-46.51-116.1-152-693.69-155-826.57C281,482.62,350.35,463.44,447,438.87c103.25-26.25,740.22-33.25,871.47,0,96.42,24.42,197.52,43.75,194.23,183.74C1509.74,750.24,1432.24,1308.58,1387.5,1416.57Z" transform="translate(-284.17 -416.48)"/><path class="bc4b891f-5634-4d5b-a6d6-12ea9a9c5431" d="M1318.49,438.87c-50.39-12.77-175.34-19.59-316-21.67-.32,1.58-.81,3.15-1.2,4.72,51.53,17.82,102.61,38.15,155.93,48.93,52.17,10.55,105.15,20.19,152.44,46.21,111.12,61.11,139.69,172,139.67,291.79,0,142.14-31.16,279.31-55.67,418.48-9.79,55.56-19.56,115.75-2.48,171,.45,1.45,1,2.84,1.47,4.28,45.27-135.15,117.19-657.08,120.07-779.95C1516,482.62,1414.91,463.29,1318.49,438.87Z" transform="translate(-284.17 -416.48)"/><path class="a4d98804-89e7-4c50-a968-b5361da933e2" d="M633,1252.26c-89.05-171-144.85-384.3-75.82-572.56,39.58-108,105.51-195.53,191.43-261.49C608.1,421.36,487.18,428.66,447,438.87c-96.67,24.57-166,43.75-162.74,187.24,3,132.88,108.5,710.47,155,826.57,34.1,85.11,162.36,120.14,228.22,120.14H986.08C828.79,1514.3,711.91,1403.87,633,1252.26Z" transform="translate(-284.17 -416.48)"/><path class="aadde57e-5348-44fb-ac33-2775996e2919" d="M664,738.11c0-129.51,105-234.49,234.49-234.49S1133,608.6,1133,738.11Z" transform="translate(-284.17 -416.48)"/><polygon class="bfdfec0f-0894-4e94-8a7f-29385b46c572" points="614.32 130.01 592.68 321.63 635.94 321.63 614.32 130.01"/><path class="b5b4e78c-303e-4fce-8744-3679f8cde63b" d="M735.68,945c7.67,32.24-46.32,117.26-47.87,200.53S808,1400,663.4,1424.24c-90.12,15.1-205.48-304.74-186.46-414C489.49,938,539.36,921.5,606.69,897,680.87,870,724.32,897,735.68,945Z" transform="translate(-284.17 -416.48)"/><path class="b5b4e78c-303e-4fce-8744-3679f8cde63b" d="M1067.22,945c-7.65,32.24,46.33,117.26,47.9,200.53s-120.21,254.46,24.4,278.7c90.13,15.1,205.48-304.74,186.45-414C1313.42,938,1263.57,921.5,1196.22,897,1122,870,1078.61,897,1067.22,945Z" transform="translate(-284.17 -416.48)"/></g></g></svg>