<svg id="ac711655-2a79-45ef-a740-5093fa8ce80a" data-name="Layer 2" xmlns="http://www.w3.org/2000/svg" viewBox="0 0 211.13 299.31"><defs><style>.b6459c63-5ce6-4591-835a-f669f90e947d{fill:#373a3c;}.e916f9c6-ceda-4504-888f-10d35f7d0ce9{fill:#ffa93d;}.ace9a276-db7e-4822-be2d-1a55a8d7da25{fill:#ffeacf;}.b4dc790f-22c1-48ec-8c7d-a3393a2b3c72{fill:#ff4d3d;}.b41ebe83-46cb-4f02-8199-f308246c2756{fill:#dbc9b2;}.f895cddb-9c6c-45d7-9ecb-2d2f8e88b032{fill:#ababab;}</style></defs><title>seriesIcon</title><path class="b6459c63-5ce6-4591-835a-f669f90e947d" d="M1134,692.61h-58.71v-3.82a4,4,0,0,0-4-4h-16.77a3.71,3.71,0,0,1-3.7-3.71v-5.18a13.71,13.71,0,1,0-27.41,0v5.18a3.71,3.71,0,0,1-3.71,3.71H1003a4,4,0,0,0-4,4v3.82H940.31a3.5,3.5,0,0,0-3.7,3.7V947.82a3.5,3.5,0,0,0,3.7,3.71H1134a3.5,3.5,0,0,0,3.7-3.71V696.31A4,4,0,0,0,1134,692.61Zm-96.87-24.37a4.45,4.45,0,1,1-4.44,4.44A4.44,4.44,0,0,1,1037.17,668.24Z" transform="translate(-926.61 -652.21)"/><rect class="e916f9c6-ceda-4504-888f-10d35f7d0ce9" y="30.4" width="201.13" height="258.92" rx="3.7"/><rect class="ace9a276-db7e-4822-be2d-1a55a8d7da25" x="23.42" y="33.49" width="154.3" height="235.61"/><path class="b4dc790f-22c1-48ec-8c7d-a3393a2b3c72" d="M1046.37,721c-7-2.59-14.07-1.11-19.26,4.44-5.18-5.55-12.22-7-19.26-4.44-7.78,3-14.44,11.85-11.85,24.45,4.81,20,28.89,30,30,30.74a3.15,3.15,0,0,0,3,0c1.12-.37,24.82-10.74,29.27-30.74C1061.19,732.84,1054.15,724,1046.37,721Z" transform="translate(-926.61 -652.21)"/><path class="b41ebe83-46cb-4f02-8199-f308246c2756" d="M1072.71,804.09H982a3.71,3.71,0,0,0,0,7.41h90.38a3.5,3.5,0,0,0,3.7-3.71C1076.41,805.94,1074.56,804.09,1072.71,804.09Z" transform="translate(-926.61 -652.21)"/><path class="b41ebe83-46cb-4f02-8199-f308246c2756" d="M1072.71,823.14H982a3.71,3.71,0,0,0,0,7.41h90.38a3.5,3.5,0,0,0,3.7-3.71C1076.41,825,1074.56,823.14,1072.71,823.14Z" transform="translate(-926.61 -652.21)"/><path class="b41ebe83-46cb-4f02-8199-f308246c2756" d="M1072.71,842.19H982a3.71,3.71,0,0,0,0,7.41h90.38a3.5,3.5,0,0,0,3.7-3.71C1076.41,844,1074.56,842.19,1072.71,842.19Z" transform="translate(-926.61 -652.21)"/><path class="b41ebe83-46cb-4f02-8199-f308246c2756" d="M1072.71,861.24H982a3.71,3.71,0,0,0,0,7.41h90.38a3.5,3.5,0,0,0,3.7-3.71C1076.41,863.09,1074.56,861.24,1072.71,861.24Z" transform="translate(-926.61 -652.21)"/><path class="b41ebe83-46cb-4f02-8199-f308246c2756" d="M1072.71,880.29H982a3.71,3.71,0,0,0,0,7.41h90.38A3.5,3.5,0,0,0,1076,884C1076.41,882.14,1074.56,880.29,1072.71,880.29Z" transform="translate(-926.61 -652.21)"/><path class="f895cddb-9c6c-45d7-9ecb-2d2f8e88b032" d="M1061.35,674.81h-16.77a3.71,3.71,0,0,1-3.7-3.71v-5.18a13.71,13.71,0,1,0-27.41,0v5.18a3.71,3.71,0,0,1-3.71,3.71H993a4,4,0,0,0-4,4v9.45a4,4,0,0,0,4,4h68.35a4,4,0,0,0,4-4v-9.45A4,4,0,0,0,1061.35,674.81Zm-34.18-7.68a4.45,4.45,0,1,1,4.45-4.45A4.44,4.44,0,0,1,1027.17,667.13Z" transform="translate(-926.61 -652.21)"/></svg>