<svg id="bc1905c2-de54-45ab-b17f-3e1220d6d066" data-name="Layer 1" xmlns="http://www.w3.org/2000/svg" xmlns:xlink="http://www.w3.org/1999/xlink" viewBox="0 0 631.24 618.03"><defs><style>.bd960f69-91d2-4b54-bb39-1fa3b0d62149{fill:none;}.b9f0a9fc-a0d7-42f0-a523-1b185fa6ea0e{clip-path:url(#acdf60d8-444a-4b67-947b-053c3a88e532);}.circle{fill:#69ab56;}.shadow{opacity:0.15;}.symbol{fill:#f0f0f4;}</style><clipPath id="acdf60d8-444a-4b67-947b-053c3a88e532" transform="translate(-262 -1079)"><circle class="bd960f69-91d2-4b54-bb39-1fa3b0d62149" cx="551.25" cy="1366.75" r="289.75"/></clipPath></defs><title>successIcon</title><g class="b9f0a9fc-a0d7-42f0-a523-1b185fa6ea0e"><circle class="circle" cx="289" cy="289" r="289"/><polygon class="shadow" points="459.63 618.03 249.75 470.33 421.36 122.81 631.24 270.5 459.63 618.03"/></g><path class="symbol" d="M408.94,1466.31l89.88,74.35c8.38,6.93,17,11.71,28.28,11.71,9.81,0,21.53-4.36,28.28-11.71,7-7.63,12.2-17.64,11.72-28.29-.45-10-3.66-21.62-11.72-28.28l-89.88-74.35c-8.38-6.93-17-11.71-28.28-11.71-9.81,0-21.53,4.36-28.28,11.71-7,7.63-12.2,17.64-11.72,28.29.45,10,3.66,21.62,11.72,28.28Z" transform="translate(-262 -1079)"/><path class="symbol" d="M566.36,1535.48,672,1320.5l29.91-60.91c4.79-9.75,7-20.07,4-30.83-2.56-9.28-9.73-19.33-18.39-23.9-9.28-4.91-20.52-7.37-30.82-4-9.5,3.07-19.34,9.09-23.9,18.38l-105.59,215-29.92,60.91c-4.79,9.75-7,20.07-4,30.83,2.55,9.27,9.73,19.33,18.38,23.9,9.28,4.91,20.53,7.36,30.82,4,9.51-3.07,19.35-9.09,23.91-18.38Z" transform="translate(-262 -1079)"/></svg>