<svg  viewBox="0 0 902 902" fill="none" xmlns="http://www.w3.org/2000/svg">
<g id="successIcon" clip-path="url(#clip0)">
<g id="circle" filter="url(#filter0_d)">
<circle cx="450.5" cy="450.5" r="422.5" fill="#69AB56"/>
</g>
<path id="symbol" d="M332.967 476.547C309.117 455.578 272.785 457.914 251.817 481.763C230.848 505.613 233.184 541.945 257.033 562.913L332.967 476.547ZM658.56 281.317C671.438 252.288 658.345 218.317 629.317 205.44C600.288 192.562 566.317 205.655 553.44 234.683L658.56 281.317ZM419.872 629.517L381.905 672.7L419.872 629.517ZM443.487 624.335L390.927 601.018L443.487 624.335ZM257.033 562.913L381.905 672.7L457.838 586.334L332.967 476.547L257.033 562.913ZM496.048 647.651L658.56 281.317L553.44 234.683L390.927 601.018L496.048 647.651ZM381.905 672.7C418.656 705.012 476.204 692.383 496.048 647.651L390.927 601.018C402.56 574.796 436.295 567.393 457.838 586.334L381.905 672.7Z" fill="#F7F8FA"/>
</g>
<defs>
<filter id="filter0_d" x="-15" y="-11" width="931" height="931" filterUnits="userSpaceOnUse" color-interpolation-filters="sRGB">
<feFlood flood-opacity="0" result="BackgroundImageFix"/>
<feColorMatrix in="SourceAlpha" type="matrix" values="0 0 0 0 0 0 0 0 0 0 0 0 0 0 0 0 0 0 127 0"/>
<feMorphology radius="11" operator="dilate" in="SourceAlpha" result="effect1_dropShadow"/>
<feOffset dy="4"/>
<feGaussianBlur stdDeviation="16"/>
<feColorMatrix type="matrix" values="0 0 0 0 0 0 0 0 0 0 0 0 0 0 0 0 0 0 0.25 0"/>
<feBlend mode="normal" in2="BackgroundImageFix" result="effect1_dropShadow"/>
<feBlend mode="normal" in="SourceGraphic" in2="effect1_dropShadow" result="shape"/>
</filter>
<clipPath id="clip0">
<rect width="902" height="902" fill="white"/>
</clipPath>
</defs>
</svg>
