<svg id="f761249d-e792-49e3-af12-43f1579ea46e" data-name="Layer 2" xmlns="http://www.w3.org/2000/svg" viewBox="0 0 208.2 163.26"><defs><style>.b35d94e0-1880-4eff-bc67-1ef147fdfbbe{fill:#b7cf49;}.b4347ebf-cb81-43fa-91b0-4b79dce22643{fill:#dd788c;}.a9eae78b-b4b5-458d-8908-19436e64eb3f{fill:#ead9d8;}.bab32fea-fd7b-4eb0-95df-b99e13b260f8{fill:#f8f0f1;}.a0c19815-2064-4ff1-9949-ee13c0566524{fill:#c0aeab;}.b32007d7-826e-4213-a194-3d439ecfd34d{fill:#404b75;}.fbb045c7-5163-4dc0-848b-12b84a8dda81{fill:#b0c2d5;}.e33cfcd1-45e9-43bb-b33d-b131202035e8{fill:#7f96a2;}.ad267d86-e693-4778-b397-6f03536907cb{fill:#deebf5;}</style></defs><title>trainingIcon</title><path class="b35d94e0-1880-4eff-bc67-1ef147fdfbbe" d="M667.27,421.49a1.62,1.62,0,0,1-2.16-.74l-2-4.15a1.61,1.61,0,1,1,2.89-1.42l2,4.15A1.62,1.62,0,0,1,667.27,421.49Z" transform="translate(-605.35 -357.77)"/><path class="b35d94e0-1880-4eff-bc67-1ef147fdfbbe" d="M672.17,431.51a1.62,1.62,0,0,1-2.16-.74l-2-4.15a1.61,1.61,0,1,1,2.9-1.41l2,4.14A1.62,1.62,0,0,1,672.17,431.51Z" transform="translate(-605.35 -357.77)"/><path class="b35d94e0-1880-4eff-bc67-1ef147fdfbbe" d="M675.79,421l-4.15,2a1.61,1.61,0,0,1-1.41-2.9l4.15-2a1.61,1.61,0,0,1,1.41,2.9Z" transform="translate(-605.35 -357.77)"/><path class="b35d94e0-1880-4eff-bc67-1ef147fdfbbe" d="M665.77,425.86l-4.15,2a1.61,1.61,0,0,1-1.42-2.9l4.15-2a1.61,1.61,0,1,1,1.42,2.9Z" transform="translate(-605.35 -357.77)"/><path class="b4347ebf-cb81-43fa-91b0-4b79dce22643" d="M715.18,395.5a7.2,7.2,0,1,1,3.31-9.63A7.21,7.21,0,0,1,715.18,395.5Zm-4.91-10a4,4,0,1,0,5.32,1.82A4,4,0,0,0,710.27,385.46Z" transform="translate(-605.35 -357.77)"/><rect class="a9eae78b-b4b5-458d-8908-19436e64eb3f" x="659.61" y="427.84" width="99.69" height="23.12" transform="translate(-726.23 -1.66) rotate(-26.04)"/><rect class="bab32fea-fd7b-4eb0-95df-b99e13b260f8" x="655.95" y="428.69" width="99.69" height="6.43" transform="translate(-723.32 -4.03) rotate(-26.04)"/><rect class="a0c19815-2064-4ff1-9949-ee13c0566524" x="662.61" y="440.8" width="99.69" height="9.46" transform="translate(-728.62 0.28) rotate(-26.04)"/><path class="b32007d7-826e-4213-a194-3d439ecfd34d" d="M761.47,428.64,669,473.83l-11.57-23.67L749.9,405Zm-91,40.87,86.66-42.35-8.73-17.87-86.67,42.35Z" transform="translate(-605.35 -357.77)"/><polygon class="fbb045c7-5163-4dc0-848b-12b84a8dda81" points="174.56 24.89 192.16 60.9 206.59 51.52 190.83 19.27 174.56 24.89"/><path class="b32007d7-826e-4213-a194-3d439ecfd34d" d="M798.21,420.12a1.6,1.6,0,0,1-2.15-.74l-17.6-36a1.6,1.6,0,0,1,0-1.32,1.57,1.57,0,0,1,1-.91l16.27-5.63a1.63,1.63,0,0,1,2,.82l15.76,32.26a1.62,1.62,0,0,1-.57,2.06L798.38,420A1,1,0,0,1,798.21,420.12Zm-16.05-36.53,16,32.74,11.71-7.61L795.36,379Z" transform="translate(-605.35 -357.77)"/><rect class="fbb045c7-5163-4dc0-848b-12b84a8dda81" x="751.85" y="379.25" width="46.91" height="55.92" transform="translate(-705.42 23.99) rotate(-26.04)"/><polygon class="e33cfcd1-45e9-43bb-b33d-b131202035e8" points="168.53 99.94 205.23 82 203.31 64.27 161.16 84.87 168.53 99.94"/><polygon class="ad267d86-e693-4778-b397-6f03536907cb" points="129.24 19.55 136.61 34.62 178.76 14.03 165.95 1.61 129.24 19.55"/><path class="b32007d7-826e-4213-a194-3d439ecfd34d" d="M767.22,444.08a1.61,1.61,0,0,1-2.16-.74L740.51,393.1a1.61,1.61,0,0,1,2.9-1.42L768,441.93A1.61,1.61,0,0,1,767.22,444.08Z" transform="translate(-605.35 -357.77)"/><path class="b32007d7-826e-4213-a194-3d439ecfd34d" d="M778.8,438.42,775.59,440a1.61,1.61,0,0,1-1.41-2.9l3.21-1.56a1.61,1.61,0,0,1,1.41,2.89Z" transform="translate(-605.35 -357.77)"/><path class="b32007d7-826e-4213-a194-3d439ecfd34d" d="M809.37,423.49a1.62,1.62,0,0,1-2.16-.74L782.66,372.5a1.61,1.61,0,0,1,2.9-1.41l24.55,50.24A1.62,1.62,0,0,1,809.37,423.49Z" transform="translate(-605.35 -357.77)"/><path class="b32007d7-826e-4213-a194-3d439ecfd34d" d="M784.82,373.24l-8.24,4a1.61,1.61,0,1,1-1.42-2.9l6.17-3-10.34-10-34.24,16.73,6,12.18,23.53-11.51a1.61,1.61,0,0,1,1.42,2.9l-25,12.21a1.62,1.62,0,0,1-2.16-.74L733.14,378a1.62,1.62,0,0,1,.74-2.16l36.71-17.94a1.61,1.61,0,0,1,1.83.29l12.81,12.42a1.61,1.61,0,0,1-.41,2.6Z" transform="translate(-605.35 -357.77)"/><path class="b32007d7-826e-4213-a194-3d439ecfd34d" d="M811.29,441.22l-36.7,17.94a1.62,1.62,0,0,1-2.16-.74l-7.37-15.08a1.61,1.61,0,0,1,2.9-1.41l6.66,13.62,34.24-16.73L807.3,424.5l-21,10.24a1.61,1.61,0,1,1-1.42-2.9l23-11.25a1.6,1.6,0,0,1,1.49,0,1.58,1.58,0,0,1,.82,1.23l1.93,17.74A1.62,1.62,0,0,1,811.29,441.22Z" transform="translate(-605.35 -357.77)"/><polygon class="fbb045c7-5163-4dc0-848b-12b84a8dda81" points="16.05 102.36 33.65 138.36 17.38 143.99 1.61 111.73 16.05 102.36"/><path class="b32007d7-826e-4213-a194-3d439ecfd34d" d="M639.7,497.58a.75.75,0,0,1-.18.08l-16.26,5.62a1.61,1.61,0,0,1-2-.81l-15.76-32.26a1.6,1.6,0,0,1,.57-2.06l14.43-9.38a1.64,1.64,0,0,1,1.31-.2,1.58,1.58,0,0,1,1,.85l17.6,36a1.66,1.66,0,0,1,0,1.33A1.6,1.6,0,0,1,639.7,497.58Zm-16.15,2.19,13.2-4.57-16-32.73L609,470.08Z" transform="translate(-605.35 -357.77)"/><rect class="fbb045c7-5163-4dc0-848b-12b84a8dda81" x="620.14" y="443.62" width="46.91" height="55.92" transform="translate(-747.05 -27.3) rotate(-26.04)"/><polygon class="e33cfcd1-45e9-43bb-b33d-b131202035e8" points="78.96 143.71 42.26 161.65 29.45 149.23 71.6 128.64 78.96 143.71"/><polygon class="ad267d86-e693-4778-b397-6f03536907cb" points="39.68 63.32 47.04 78.39 4.89 98.99 2.97 81.26 39.68 63.32"/><path class="b32007d7-826e-4213-a194-3d439ecfd34d" d="M677.66,487.85a1.62,1.62,0,0,1-2.16-.74L651,436.87a1.61,1.61,0,1,1,2.89-1.42L678.4,485.7A1.61,1.61,0,0,1,677.66,487.85Z" transform="translate(-605.35 -357.77)"/><path class="b32007d7-826e-4213-a194-3d439ecfd34d" d="M669.28,492l-3.21,1.56a1.61,1.61,0,1,1-1.41-2.89l3.21-1.57a1.61,1.61,0,0,1,1.41,2.9Z" transform="translate(-605.35 -357.77)"/><path class="b32007d7-826e-4213-a194-3d439ecfd34d" d="M635.51,508.45a1.62,1.62,0,0,1-2.16-.74L608.8,457.47a1.61,1.61,0,1,1,2.89-1.42l24.56,50.24A1.62,1.62,0,0,1,635.51,508.45Z" transform="translate(-605.35 -357.77)"/><path class="b32007d7-826e-4213-a194-3d439ecfd34d" d="M653.1,437.61l-25,12.21a1.61,1.61,0,0,1-1.42-2.9l23.54-11.5-6-12.17L610.05,440l1.55,14.32,6.17-3a1.61,1.61,0,1,1,1.42,2.89l-8.24,4a1.62,1.62,0,0,1-2.31-1.28l-1.92-17.73a1.6,1.6,0,0,1,.89-1.62l36.71-17.94a1.62,1.62,0,0,1,2.16.74l7.36,15.07A1.62,1.62,0,0,1,653.1,437.61Z" transform="translate(-605.35 -357.77)"/><path class="b32007d7-826e-4213-a194-3d439ecfd34d" d="M685,502.93l-36.7,17.93a1.6,1.6,0,0,1-1.83-.29l-12.81-12.41a1.59,1.59,0,0,1-.47-1.41,1.61,1.61,0,0,1,.88-1.2l23-11.25a1.61,1.61,0,1,1,1.42,2.9l-21,10.24,10.35,10,34.24-16.73-6.66-13.63a1.61,1.61,0,0,1,2.9-1.41l7.36,15.07A1.62,1.62,0,0,1,685,502.93Z" transform="translate(-605.35 -357.77)"/></svg>